<svg width="70" height="70" fill="none" xmlns="http://www.w3.org/2000/svg"><path d="M55.647.651l-10.45 9.58a11.694 11.694 0 01-7.924 3.082c-3.668 0-6.91 2.445-7.96 5.906-3.414 1.037-5.907 4.212-5.907 7.96v3.138c0 1.57-.67 3.072-1.836 4.122l-6.991 6.294a5.543 5.543 0 01-3.71 1.423h-2.44c-4.588 0-8.32 3.732-8.32 8.32 0 4.589 3.732 8.32 8.416 8.32a2.66 2.66 0 011.894.785c.506.506.784 1.18.784 1.99 0 4.588 3.732 8.32 8.32 8.32 4.589 0 8.32-3.732 8.32-8.32v-3.138c0-1.57.67-3.072 1.837-4.122l6.991-6.294a5.543 5.543 0 013.71-1.423h2.44c3.748 0 6.922-2.492 7.96-5.907 3.46-1.05 5.907-4.292 5.907-7.96v-.425c0-3.296 1.398-6.458 3.837-8.674l8.826-8.025L55.647.651zM42.82 44.375h-2.438a7.755 7.755 0 00-5.195 1.993l-6.992 6.294a7.776 7.776 0 00-2.57 5.771v3.137a6.109 6.109 0 01-6.102 6.102c-3.364 0-6.101-2.738-6.101-6.197a4.87 4.87 0 00-1.433-3.462c-.925-.926-2.155-1.435-3.56-1.435a6.109 6.109 0 01-6.1-6.101 6.109 6.109 0 016.1-6.102h2.44a7.754 7.754 0 005.194-1.994l6.992-6.293a7.777 7.777 0 002.57-5.771V27.18a6.109 6.109 0 016.102-6.102c3.364 0 6.101 2.738 6.101 6.197a4.87 4.87 0 001.433 3.462c.924.926 2.155 1.435 3.56 1.435a6.109 6.109 0 016.1 6.101 6.109 6.109 0 01-6.1 6.102zm16.213-22.39a13.974 13.974 0 00-4.564 10.317v.425c0 2.318-1.344 4.386-3.335 5.411-.073-4.525-3.772-8.185-8.41-8.185a2.66 2.66 0 01-1.893-.784c-.506-.506-.784-1.18-.784-1.99 0-4.541-3.66-8.239-8.185-8.313 1.026-1.991 3.093-3.335 5.411-3.335 3.498 0 6.844-1.301 9.422-3.665l8.814-8.08L66.21 15.46l-7.177 6.526z" fill="#2F80ED"/></svg>